<!--?xml version="1.0" standalone="no"?--><svg class="icon" width="200px" height="200.00px" viewBox="-431 18 1049 1149" version="1.1" xmlns="http://www.w3.org/2000/svg"><path fill="#333333" d="M885.3 852.7l-121-120.9c25.9-29.4 46.8-62.5 62.1-98.7 18.9-44.8 28.6-92.4 28.6-141.4s-9.6-96.6-28.6-141.4c-18.3-43.3-44.5-82.1-77.8-115.5-33.4-33.4-72.2-59.5-115.5-77.8-44.8-18.9-92.4-28.6-141.4-28.6S395.1 138 350.3 157c-43.3 18.3-82.1 44.5-115.5 77.8-33.4 33.4-59.5 72.2-77.8 115.5-18.9 44.8-28.6 92.4-28.6 141.4s9.6 96.6 28.6 141.4c18.3 43.3 44.5 82.1 77.8 115.5 33.4 33.4 72.2 59.5 115.5 77.8 44.8 18.9 92.4 28.6 141.4 28.6s96.6-9.6 141.4-28.6c36.2-15.3 69.3-36.2 98.7-62.1l120.9 120.9c4.5 4.5 10.4 6.7 16.3 6.7s11.8-2.2 16.3-6.7c8.9-8.9 8.9-23.5 0-32.5zM491.8 809c-84.7 0-164.4-33-224.3-92.9-59.9-59.9-92.9-139.6-92.9-224.3s33-164.4 92.9-224.3c59.9-59.9 139.6-92.9 224.3-92.9s164.4 33 224.3 92.9C776 327.3 809 407 809 491.8s-33 164.4-92.9 224.3C656.2 776 576.5 809 491.8 809zM705 493h-86c-8.2 0-15.7 4.3-19.8 11.4l-25.4 43.2-111.6-168.3c-4.3-6.4-11.5-10.3-19.2-10.3h-0.1c-7.7 0-14.9 3.9-19.2 10.4L349.6 493H278c-12.7 0-23 10.3-23 23s10.3 23 23 23h84c7.8 0 15-3.9 19.3-10.4l61.9-94.7 112.7 169.9c4.3 6.4 11.5 10.3 19.2 10.3h0.6c7.9-0.2 15.2-4.5 19.2-11.4l37.3-63.6H705c12.7 0 23-10.3 23-23S717.7 493 705 493z"></path></svg>