<svg classname="icon" width="60" height="60" viewBox="399 47 1921 974" version="1.1" xmlns="http://www.w3.org/2000/svg">
  <path fill="#333333" d="M1947.834462 512c0-255.422122-184.150489-467.696012-426.859293-512 203.798345 80.902935 347.882619 279.693002 347.882619 512 0 232.69225-144.084274 431.482318-347.882619 512 242.708804-44.303988 426.859293-256.577878 426.859293-512zM1358.784048 461.917231h108.641084l20.033107-3.852521c3.082017 0.385252 4.623025-4.237773 4.623025-14.639578V313.595184c0-5.778781-1.541008-9.631302-4.623025-12.328066-3.082017-2.311512-8.475546-3.467269-15.795335-3.467268h-112.493604c-10.401806 0-16.565839 2.311512-17.721595 6.549285-1.155756 4.237773-1.92626 8.860798-1.92626 13.869074V442.269375c0 8.475546 1.155756 13.869074 3.467268 16.180587 1.155756 2.311512 6.934537 3.467269 15.795335 3.467269zM1296.758465 16.565839c-273.528969 0-495.434161 221.905192-495.434161 495.434161s221.905192 495.434161 495.434161 495.434161 495.434161-221.905192 495.434161-495.434161S1570.287434 16.565839 1296.758465 16.565839z m-35.44319 290.48006c0-8.090293 1.541008-18.492099 4.623024-31.59067 3.082017-13.09857 10.787058-24.27088 23.500377-33.51693 12.713318-9.24605 33.51693-13.869074 62.410835-13.869074h127.133183c48.156509 0 74.353649 10.787058 78.976674 32.746426 4.623025 21.959368 6.934537 36.984199 6.934537 45.844996v144.854778c0 54.320542-28.508653 81.288187-85.911211 81.288187h-127.133183c-60.484575 0-90.534236-26.967645-90.534236-81.288187V307.045899zM1178.871332 585.197893l-15.795335-21.959368v221.134688c0 20.41836-11.942814 30.820166-36.213695 31.59067-23.885628 0.770504-36.213695-9.631302-36.213694-31.59067v-176.060196c-33.902182 52.009029-57.78781 79.747178-71.271633 82.829195-13.483822 3.082017-25.041384 1.155756-34.672686-5.393529-15.410083-9.631302-20.41836-23.885628-14.639579-42.377727 2.311512-7.319789 10.787058-19.262603 25.426637-35.443191 14.639579-16.180587 26.197141-28.893905 33.902182-38.525207 8.090293-9.631302 16.951091-24.656132 26.967645-45.459744 10.016554-20.803612 20.803612-47.771257 31.590669-80.902934h-83.984951c-8.475546 0-15.795335-3.467269-22.34462-10.016554-6.549285-6.549285-9.631302-15.795335-8.475545-26.967645 0.385252-10.016554 3.852521-18.492099 10.401806-24.656132 6.549285-6.164033 13.869074-9.24605 21.959368-9.24605h84.755455V301.267118c-11.17231 2.311512-25.811889 4.623025-44.303988 6.934537-18.492099 2.311512-30.820166 3.082017-36.213695 2.311513-16.180587-0.770504-25.811889-7.319789-28.508653-20.033108-2.696764-12.328066-3.467269-21.574116-2.696764-26.967645 1.155756-11.942814 6.549285-19.262603 15.410083-21.959368 8.860798-2.696764 26.967645-4.237773 55.091045-5.393529 27.738149-0.770504 62.796087-7.319789 104.403311-18.877351 41.992476-11.557562 66.648608-12.328066 73.968398-2.311512 7.319789 10.016554 11.17231 20.41836 11.17231 30.434913-0.385252 9.631302-2.696764 16.951091-6.934538 21.959368-4.237773 5.008277-27.352897 12.328066-68.96012 22.34462v82.829195H1209.691497c8.090293 0 15.795335 3.467269 23.500377 10.016554 7.705041 6.549285 11.557562 15.024831 11.557562 25.811888-0.385252 15.024831-5.008277 24.656132-14.254327 28.893906-8.860798 4.237773-16.180587 6.164033-20.803612 6.164033h-47.000752v75.509405c9.631302-13.483822 20.41836-20.033108 32.361174-18.492099 11.557562 1.92626 23.500376 11.557562 35.828442 29.664409 12.328066 18.106847 19.647856 31.205418 22.34462 38.910459 2.311512 8.090293 2.696764 16.565839 0.385252 25.426637s-8.860798 16.951091-20.033107 23.885628c-11.17231 6.934537-20.803612 8.090293-29.279158 3.467269-4.237773-1.92626-8.475546-5.393529-11.942814-11.17231l-13.483822-25.426637z m195.708051 38.910459c-5.008277 10.401806-13.869074 27.738149-26.967645 50.853273-13.09857 23.500376-30.434913 52.009029-52.009029 85.52596-21.574116 33.902182-42.76298 49.697517-64.337096 47.386004-12.328066-0.770504-21.188864-5.393529-26.967645-13.483822-5.393529-8.090293-8.475546-15.410083-9.246049-22.34462-0.770504-6.549285 3.082017-15.795335 11.557562-26.967645l29.279157-33.902182c8.090293-8.860798 18.877351-25.041384 33.131678-48.541761 14.254327-23.500376 24.27088-43.533484 30.820166-60.099323 6.549285-16.565839 12.713318-28.123401 18.492099-34.287434 5.778781-6.549285 16.180587-8.860798 30.820165-6.934537 8.090293 1.155756 15.410083 5.393529 21.959368 11.942814 6.549285 6.549285 10.016554 13.869074 10.401806 21.959368 0 7.705041-1.92626 17.336343-6.934537 28.893905z m211.118134 171.051919c-12.328066 6.934537-23.115124 8.475546-32.361174 5.008277-7.319789-2.311512-13.483822-6.549285-17.721595-13.098571-4.237773-6.549285-9.631302-18.877351-16.565839-36.598946-6.934537-17.721595-17.721595-39.295711-32.361174-64.337096-14.639579-25.041384-25.426637-42.76298-32.361174-52.779533-6.934537-10.016554-11.942814-18.106847-15.02483-24.270881-3.082017-5.778781-3.852521-12.328066-2.696765-18.877351 0.385252-3.852521 3.082017-9.631302 7.705042-17.336343 4.623025-7.319789 13.09857-11.942814 25.426636-13.869075 6.549285-0.770504 14.254327 0.385252 22.729872 3.852521s24.27088 23.500376 47.000753 59.714071c22.729872 36.213695 39.295711 67.804364 50.468021 94.772009 10.787058 26.582393 16.180587 42.377728 16.180587 47.386004-1.155756 13.483822-8.090293 23.500376-20.41836 30.434914z"></path>
</svg>