<?xml version="1.0" standalone="no"?><!DOCTYPE svg PUBLIC "-//W3C//DTD SVG 1.1//EN" "http://www.w3.org/Graphics/SVG/1.1/DTD/svg11.dtd"><svg class="icon" width="200px" height="200.00px" viewBox="0 0 1024 1024" version="1.1" xmlns="http://www.w3.org/2000/svg"><path fill="#333333" d="M879.7952 81.186133a21.3504 21.3504 0 0 0-21.649067 0.3584L143.607467 518.3488a21.333333 21.333333 0 0 0 1.9968 37.4784l229.000533 108.552533a21.333333 21.333333 0 1 0 18.2784-38.5536l-193.348267-91.648L797.909333 168.362667 462.429867 696.1408a20.189867 20.189867 0 0 0-3.328 11.306667l1.9968 215.68c0.110933 11.6992 9.634133 19.797333 21.333333 19.797333h0.196267c11.784533 0 21.248-8.430933 21.137066-20.215467l-1.732266-186.410666 351.581866 145.783466a21.3248 21.3248 0 0 0 19.933867-1.911466 21.333333 21.333333 0 0 0 9.5744-17.595734l7.4752-762.641066a21.3248 21.3248 0 0 0-10.8032-18.747734z m-365.909333 613.845334l333.354666-524.5952-6.4768 660.130133-326.877866-135.534933z" /></svg>