<?xml version="1.0" standalone="no"?><!DOCTYPE svg PUBLIC "-//W3C//DTD SVG 1.1//EN" "http://www.w3.org/Graphics/SVG/1.1/DTD/svg11.dtd"><svg t="1604543477351" class="icon" viewBox="0 0 1311 1024" version="1.1" xmlns="http://www.w3.org/2000/svg" p-id="2959" xmlns:xlink="http://www.w3.org/1999/xlink" width="256.0546875" height="200"><defs><style type="text/css"></style></defs><path d="M465.574755 168.089574h785.466196a53.148241 53.148241 0 0 0 53.137581-53.137582 53.148241 53.148241 0 0 0-53.137581-53.137582H465.574755a53.148241 53.148241 0 0 0-53.126922 53.137582 53.148241 53.148241 0 0 0 53.126922 53.137582z m785.466196 288.126145H465.574755a53.148241 53.148241 0 0 0-53.126922 53.137582 53.148241 53.148241 0 0 0 53.126922 53.137581h785.466196a53.148241 53.148241 0 0 0 53.137581-53.137581 53.148241 53.148241 0 0 0-53.137581-53.137582z m3.506973 432.796809H469.081729a53.148241 53.148241 0 0 0-53.137581 53.137582 53.148241 53.148241 0 0 0 53.137581 53.137581h785.466195a53.148241 53.148241 0 0 0 53.126923-53.137581 53.148241 53.148241 0 0 0-53.126923-53.137582zM117.712801 520.417856l-34.749953-34.739293c-17.236403-17.236403-45.281534-17.236403-62.645851 0-17.247063 17.236403-17.247063 45.292194 0 62.65651l58.531286 58.541946a54.491338 54.491338 0 0 0 38.864518 16.085178c14.656805 0 28.556787-5.788106 38.853859-16.085178L284.821702 478.600658c17.247063-17.236403 17.247063-45.281534 0-62.65651a44.023714 44.023714 0 0 0-62.528597 0l-104.590963 104.473708z m-67.687792-410.145382a107.074626 107.074626 0 1 0 214.138592 0 107.074626 107.074626 0 0 0-214.149251 0z m0 804.7812a107.074626 107.074626 0 1 0 214.138592 0 107.074626 107.074626 0 0 0-214.149251 0z" fill="#000000" p-id="2960"></path></svg>