<?xml version="1.0" standalone="no"?><!DOCTYPE svg PUBLIC "-//W3C//DTD SVG 1.1//EN" "http://www.w3.org/Graphics/SVG/1.1/DTD/svg11.dtd"><svg t="1604543462859" class="icon" viewBox="0 0 1234 1024" version="1.1" xmlns="http://www.w3.org/2000/svg" p-id="2833" xmlns:xlink="http://www.w3.org/1999/xlink" width="241.015625" height="200"><defs><style type="text/css"></style></defs><path d="M441.785725 179.862588h739.759687a50.055529 50.055529 0 0 0 50.035451-50.04549 50.055529 50.055529 0 0 0-50.035451-50.035451H441.785725a50.055529 50.055529 0 0 0-50.04549 50.035451 50.055529 50.055529 0 0 0 50.04549 50.04549z m739.759687 279.913412H441.785725a50.055529 50.055529 0 0 0-50.04549 50.04549 50.055529 50.055529 0 0 0 50.04549 50.04549h739.759687a50.055529 50.055529 0 0 0 50.035451-50.04549 50.055529 50.055529 0 0 0-50.035451-50.04549z m0 407.622275H441.785725a50.055529 50.055529 0 0 0-50.04549 50.04549 50.055529 50.055529 0 0 0 50.04549 50.04549h739.759687a50.055529 50.055529 0 0 0 50.035451-50.04549 50.055529 50.055529 0 0 0-50.035451-50.04549zM110.863059 516.848941l-32.727843-32.727843c-16.233412-16.223373-42.646588-16.223373-59.000471 0-16.243451 16.243451-16.243451 42.666667 0 59.020549l55.125333 55.135373a51.320471 51.320471 0 0 0 36.602981 15.149176c13.803922 0 26.895059-5.461333 36.592941-15.159216L268.247843 477.465098c16.243451-16.233412 16.243451-42.656627 0-59.01051a41.461961 41.461961 0 0 0-58.890039 0l-98.504784 98.384314z m0 401.568628l-32.727843-32.727844c-16.233412-16.223373-42.646588-16.223373-59.000471 0-16.243451 16.243451-16.243451 42.666667 0 59.02055l55.125333 55.135372a51.320471 51.320471 0 0 0 36.602981 15.149177c13.803922 0 26.895059-5.461333 36.592941-15.159216L268.247843 879.033725c16.243451-16.233412 16.243451-42.656627 0-59.010509a41.461961 41.461961 0 0 0-58.890039 0l-98.504784 98.384313z m98.504784-901.531608l-98.504784 98.384314-32.727843-32.707765c-16.233412-16.233412-42.646588-16.233412-59.000471 0-16.243451 16.233412-16.243451 42.656627 0 59.01051l55.125333 55.135372a51.320471 51.320471 0 0 0 36.602981 15.149177c13.803922 0 26.895059-5.461333 36.592941-15.159216L268.247843 75.896471c16.243451-16.233412 16.243451-42.656627 0-59.01051a41.461961 41.461961 0 0 0-58.890039 0z" fill="#000000" p-id="2834"></path></svg>